<?xml version="1.0" encoding="utf-8"?>
<!-- Generator: Adobe Illustrator 18.1.1, SVG Export Plug-In . SVG Version: 6.00 Build 0)  -->
<svg version="1.1" xmlns="http://www.w3.org/2000/svg" xmlns:xlink="http://www.w3.org/1999/xlink" x="0px" y="0px"
	 viewBox="0 0 21 29.7" enable-background="new 0 0 21 29.7" xml:space="preserve">
<g id="Layer_2">
</g>
<g id="Layer_1">
	<g opacity="0.5">
		<g>
			<path d="M10.4,29.7c-1.1,0-2-0.9-2-2v-25c0-1.1,0.9-2,2-2s2,0.9,2,2v25C12.4,28.8,11.5,29.7,10.4,29.7z"/>
		</g>
		<g>
			<path d="M19,12.5c-0.5,0-1-0.2-1.4-0.6l-7.1-7.1l-7.1,7.1c-0.8,0.8-2,0.8-2.8,0c-0.8-0.8-0.8-2,0-2.8l8.5-8.5
				c0.8-0.8,2-0.8,2.8,0l8.5,8.5c0.8,0.8,0.8,2,0,2.8C20,12.3,19.5,12.5,19,12.5z"/>
		</g>
	</g>
</g>
</svg>
