<?xml version="1.0" encoding="utf-8"?>
<!-- Generator: Adobe Illustrator 18.1.1, SVG Export Plug-In . SVG Version: 6.00 Build 0)  -->
<svg version="1.1" xmlns="http://www.w3.org/2000/svg" xmlns:xlink="http://www.w3.org/1999/xlink" x="0px" y="0px"
	 viewBox="0 0 21.6 29.8" enable-background="new 0 0 21.6 29.8" xml:space="preserve">
<g id="Layer_2">
</g>
<g id="Layer_1">
	<g opacity="0.5">
		<g>
			<path d="M10.7,29c-1.1,0-2-0.9-2-2V2c0-1.1,0.9-2,2-2s2,0.9,2,2v25C12.7,28.1,11.8,29,10.7,29z"/>
		</g>
		<g>
			<path d="M10.8,29.8L10.8,29.8c-0.5,0-1-0.2-1.4-0.6l-8.8-8.8c-0.8-0.8-0.8-2,0-2.8s2-0.8,2.8,0l7.4,7.4l7.4-7.4
				c0.8-0.8,2-0.8,2.8,0s0.8,2,0,2.8l-8.8,8.8C11.8,29.6,11.3,29.8,10.8,29.8z"/>
		</g>
	</g>
</g>
</svg>
