<?xml version="1.0" encoding="utf-8"?>
<!-- Generator: Adobe Illustrator 18.1.1, SVG Export Plug-In . SVG Version: 6.00 Build 0)  -->
<svg version="1.1" xmlns="http://www.w3.org/2000/svg" xmlns:xlink="http://www.w3.org/1999/xlink" x="0px" y="0px"
	 viewBox="0 0 221.1 312" enable-background="new 0 0 221.1 312" xml:space="preserve">
<g id="Layer_2">
</g>
<g id="Layer_1">
	<path fill="#F94F4B" d="M215.2,215.6l-90.5,90.5c0,0,0,0-0.1,0c-0.5,0.4-0.9,0.9-1.4,1.3c-0.2,0.2-0.5,0.4-0.7,0.6
		c-0.3,0.2-0.5,0.4-0.8,0.6c-0.3,0.2-0.6,0.4-0.9,0.5c-0.3,0.2-0.5,0.3-0.8,0.5c-0.3,0.2-0.6,0.3-0.9,0.4c-0.3,0.1-0.6,0.3-0.8,0.4
		c-0.3,0.1-0.6,0.2-0.9,0.3c-0.3,0.1-0.6,0.2-0.9,0.3c-0.3,0.1-0.6,0.2-0.9,0.2c-0.3,0.1-0.6,0.2-1,0.2c-0.4,0.1-0.7,0.1-1.1,0.2
		c-0.3,0-0.5,0.1-0.8,0.1c-1.3,0.1-2.6,0.1-4,0c-0.3,0-0.5-0.1-0.8-0.1c-0.4-0.1-0.7-0.1-1.1-0.2c-0.3-0.1-0.6-0.2-1-0.2
		c-0.3-0.1-0.6-0.1-0.9-0.2c-0.3-0.1-0.6-0.2-0.9-0.3c-0.3-0.1-0.6-0.2-0.9-0.3c-0.3-0.1-0.6-0.3-0.8-0.4c-0.3-0.1-0.6-0.3-0.9-0.4
		c-0.3-0.1-0.5-0.3-0.8-0.5c-0.3-0.2-0.6-0.3-0.9-0.5c-0.3-0.2-0.6-0.4-0.8-0.6c-0.2-0.2-0.5-0.4-0.7-0.6c-0.5-0.4-1-0.8-1.4-1.3
		c0,0,0,0-0.1,0L5.9,215.6c-7.8-7.8-7.8-20.5,0-28.3c7.8-7.8,20.6-7.8,28.4,0l56.5,56.4V20c0-11,9-20,20-20s20,9,20,20v223.7
		l56.3-56.4c3.9-3.9,9-5.9,14.1-5.9s10.2,2,14.1,5.9C223,195.1,223,207.8,215.2,215.6z"/>
</g>
</svg>
